#N canvas 95 233 683 804 12;
#X floatatom 305 262 5 0 0 0 - - -, f 5;
#X obj 324 -231 inlet;
#X text 340 -260 counter in;
#X floatatom 244 -113 5 0 0 0 - - -, f 5;
#X obj 299 302 outlet;
#X obj 244 -231 inlet;
#X floatatom 324 -113 5 0 0 0 - - -, f 5;
#X text 230 -260 note in;
#X obj 97 195 spigot;
#X obj 136 152 tgl 29 0 empty empty empty 17 7 0 10 #fcfcfc #000000
#000000 1 1;
#X obj 149 195 spigot;
#X obj 188 152 tgl 29 0 empty empty empty 17 7 0 10 #fcfcfc #000000
#000000 0 1;
#X obj 201 195 spigot;
#X obj 240 152 tgl 29 0 empty empty empty 17 7 0 10 #fcfcfc #000000
#000000 0 1;
#X obj 253 195 spigot;
#X obj 292 152 tgl 29 0 empty empty empty 17 7 0 10 #fcfcfc #000000
#000000 1 1;
#X obj 307 195 spigot;
#X obj 346 152 tgl 29 0 empty empty empty 17 7 0 10 #fcfcfc #000000
#000000 127 127;
#X obj 359 195 spigot;
#X obj 398 152 tgl 29 0 empty empty empty 17 7 0 10 #fcfcfc #000000
#000000 127 127;
#X obj 411 195 spigot;
#X obj 450 152 tgl 29 0 empty empty empty 17 7 0 10 #fcfcfc #000000
#000000 1 1;
#X obj 463 195 spigot;
#X obj 502 152 tgl 29 0 empty empty empty 17 7 0 10 #fcfcfc #000000
#000000 0 127;
#X obj 232 -60 route 0 1 3 4 5 6 7;
#X obj 282 -87 pack;
#X text 390 -110 pair the counter # with the note number;
#X text 390 -90 route each note to its repsective spigot \,;
#X text 390 -70 which will only pass the number if toggled;
#X text 390 -50 by the checkbox;
#X obj 270 330 s \$1-drum-pitch;
#X obj 123 -230 r 1-master-note;
#X obj 370 -231 r 1-master-syncho;
#X obj 80 -120 spigot;
#X obj 430 50 r \$1-mute-control;
#X obj 430 80 select 0 1 2 3 4 5 6 7;
#X connect 0 0 4 0;
#X connect 0 0 30 0;
#X connect 1 0 3 0;
#X connect 3 0 25 0;
#X connect 5 0 6 0;
#X connect 6 0 25 1;
#X connect 8 0 0 0;
#X connect 9 0 8 1;
#X connect 10 0 0 0;
#X connect 11 0 10 1;
#X connect 12 0 0 0;
#X connect 13 0 12 1;
#X connect 14 0 0 0;
#X connect 15 0 14 1;
#X connect 16 0 0 0;
#X connect 17 0 16 1;
#X connect 18 0 0 0;
#X connect 19 0 18 1;
#X connect 20 0 0 0;
#X connect 21 0 20 1;
#X connect 22 0 0 0;
#X connect 23 0 22 1;
#X connect 24 0 8 0;
#X connect 24 1 10 0;
#X connect 24 2 12 0;
#X connect 24 3 14 0;
#X connect 24 4 16 0;
#X connect 24 5 18 0;
#X connect 24 6 20 0;
#X connect 24 7 22 0;
#X connect 25 0 24 0;
#X connect 31 0 6 0;
#X connect 32 0 3 0;
#X connect 34 0 35 0;
#X connect 35 0 9 0;
#X connect 35 1 11 0;
#X connect 35 2 13 0;
#X connect 35 3 15 0;
#X connect 35 4 17 0;
#X connect 35 5 19 0;
#X connect 35 6 21 0;
#X connect 35 7 23 0;
#X coords 0 -1 1 1 420 51 1 123 136;
