#N canvas 683 64 683 679 12;
#X floatatom 305 267 5 0 0 0 - - -, f 5;
#X obj 324 -231 inlet;
#X text 340 -260 counter in;
#X floatatom 244 -193 5 0 0 0 - - -, f 5;
#X obj 305 307 outlet;
#X obj 244 -231 inlet;
#X floatatom 324 -193 5 0 0 0 - - -, f 5;
#X text 230 -260 note in;
#X obj 97 200 spigot;
#X obj 136 153 tgl 29 0 empty empty empty 17 7 0 10 #fcfcfc #000000
#000000 0 1;
#X obj 149 200 spigot;
#X obj 188 153 tgl 29 0 empty empty empty 17 7 0 10 #fcfcfc #000000
#000000 0 1;
#X obj 201 200 spigot;
#X obj 240 153 tgl 29 0 empty empty empty 17 7 0 10 #fcfcfc #000000
#000000 0 1;
#X obj 253 200 spigot;
#X obj 292 153 tgl 29 0 empty empty empty 17 7 0 10 #fcfcfc #000000
#000000 0 1;
#X obj 307 200 spigot;
#X obj 346 153 tgl 29 0 empty empty empty 17 7 0 10 #fcfcfc #000000
#000000 0 1;
#X obj 359 200 spigot;
#X obj 398 153 tgl 29 0 empty empty empty 17 7 0 10 #fcfcfc #000000
#000000 0 1;
#X obj 411 200 spigot;
#X obj 450 153 tgl 29 0 empty empty empty 17 7 0 10 #fcfcfc #000000
#000000 0 1;
#X obj 463 200 spigot;
#X obj 502 153 tgl 29 0 empty empty empty 17 7 0 10 #fcfcfc #000000
#000000 0 1;
#X obj 232 -140 route 0 1 3 4 5 6 7;
#X obj 282 -167 pack;
#X text 390 -190 pair the counter # with the note number;
#X text 390 -170 route each note to its repsective spigot \,;
#X text 390 -150 which will only pass the number if toggled;
#X text 390 -130 by the checkbox;
#X obj 430 -70 r \$1-mute;
#X obj 430 -30 print;
#X obj 160 -230 r \$1-note;
#X obj 390 -230 r \$1-counter;
#X connect 0 0 4 0;
#X connect 1 0 3 0;
#X connect 3 0 25 0;
#X connect 5 0 6 0;
#X connect 6 0 25 1;
#X connect 8 0 0 0;
#X connect 9 0 8 1;
#X connect 10 0 0 0;
#X connect 11 0 10 1;
#X connect 12 0 0 0;
#X connect 13 0 12 1;
#X connect 14 0 0 0;
#X connect 15 0 14 1;
#X connect 16 0 0 0;
#X connect 17 0 16 1;
#X connect 18 0 0 0;
#X connect 19 0 18 1;
#X connect 20 0 0 0;
#X connect 21 0 20 1;
#X connect 22 0 0 0;
#X connect 23 0 22 1;
#X connect 24 0 8 0;
#X connect 24 1 10 0;
#X connect 24 2 12 0;
#X connect 24 3 14 0;
#X connect 24 4 16 0;
#X connect 24 5 18 0;
#X connect 24 6 20 0;
#X connect 24 7 22 0;
#X connect 25 0 24 0;
#X connect 30 0 31 0;
#X connect 32 0 6 0;
#X connect 33 0 3 0;
#X coords 0 -1 1 1 420 51 1 123 136;
