#N canvas 683 64 683 679 12;
#X floatatom 148 180 6 0 24 0 - - -, f 6;
#X obj 130 230 int;
#X floatatom 320 310 5 0 0 0 - - -, f 5;
#X obj 252 113 select 0 1 3 4 5 6 7;
#X obj 183 231 int;
#X obj 235 231 int;
#X obj 288 232 int;
#X obj 339 232 int;
#X obj 392 233 int;
#X obj 444 233 int;
#X obj 497 234 int;
#X obj 310 40 inlet;
#X text 310 10 counter in;
#X floatatom 310 80 5 0 0 0 - - -, f 5;
#X obj 320 350 outlet;
#X text 570 180 pick notes, f 12;
#X text 380 350 output notes;
#X floatatom 201 180 6 0 24 0 - - -, f 6;
#X floatatom 253 180 6 0 24 0 - - -, f 6;
#X floatatom 306 180 6 0 24 0 - - -, f 6;
#X floatatom 357 180 6 0 24 0 - - -, f 6;
#X floatatom 410 180 6 0 24 0 - - -, f 6;
#X floatatom 462 180 6 0 24 0 - - -, f 6;
#X floatatom 515 180 6 0 24 0 - - -, f 6;
#X connect 0 0 1 1;
#X connect 1 0 2 0;
#X connect 2 0 14 0;
#X connect 3 0 1 0;
#X connect 3 1 4 0;
#X connect 3 2 5 0;
#X connect 3 3 6 0;
#X connect 3 4 7 0;
#X connect 3 5 8 0;
#X connect 3 6 9 0;
#X connect 3 7 10 0;
#X connect 4 0 2 0;
#X connect 5 0 2 0;
#X connect 6 0 2 0;
#X connect 7 0 2 0;
#X connect 8 0 2 0;
#X connect 9 0 2 0;
#X connect 10 0 2 0;
#X connect 11 0 3 0;
#X connect 11 0 13 0;
#X connect 17 0 4 1;
#X connect 18 0 5 1;
#X connect 19 0 6 1;
#X connect 20 0 7 1;
#X connect 21 0 8 1;
#X connect 22 0 9 1;
#X connect 23 0 10 1;
#X coords 0 -1 1 1 420 47 1 144 159;
