#N canvas 683 64 683 679 12;
#X obj 145 250 vradio 12 1 0 8 empty empty empty 0 -8 0 10 #fcfcfc
#000000 #000000 0;
#X obj 199 250 vradio 12 1 0 8 empty empty empty 0 -8 0 10 #fcfcfc
#000000 #000000 0;
#X obj 251 250 vradio 12 1 0 8 empty empty empty 0 -8 0 10 #fcfcfc
#000000 #000000 0;
#X obj 305 250 vradio 12 1 0 8 empty empty empty 0 -8 0 10 #fcfcfc
#000000 #000000 0;
#X obj 356 250 vradio 12 1 0 8 empty empty empty 0 -8 0 10 #fcfcfc
#000000 #000000 0;
#X obj 410 250 vradio 12 1 0 8 empty empty empty 0 -8 0 10 #fcfcfc
#000000 #000000 0;
#X obj 462 250 vradio 12 1 0 8 empty empty empty 0 -8 0 10 #fcfcfc
#000000 #000000 0;
#X obj 516 250 vradio 12 1 0 8 empty empty empty 0 -8 0 10 #fcfcfc
#000000 #000000 0;
#X obj 122 127 inlet;
#X text 170 127 clock in;
#X obj 300 100 count 8;
#X floatatom 320 125 5 0 0 0 - - -, f 5;
#X obj 250 69 r \$0-advance;
#X obj 250 175 select 0 1 2 3 4 5 6 7;
#X obj 122 157 s \$0-metro;
#X obj 216 380 int;
#X obj 244 380 int;
#X obj 272 380 int;
#X obj 300 380 int;
#X obj 328 380 int;
#X obj 356 380 int;
#X obj 384 380 int;
#X obj 412 380 int;
#X obj 329 460 hradio 15 1 0 8 empty empty empty 0 -8 0 10 #fcfcfc
#000000 #000000 0;
#X obj 297 556 count;
#X obj 329 480 + 1;
#X floatatom 329 502 2 0 0 0 - - -, f 2;
#X obj 330 615 s \$0-advance;
#X obj 330 585 select;
#X obj 235 523 r \$0-metro;
#X msg 329 528 divisor \$1;
#X obj 277 151 outlet;
#X text 250 40 control main clock with bottom clock;
#X text 424 207 deterine the amount of space between;
#X text 554 227 ticks of the main;
#X text 554 247 clock;
#X text 370 435 current number of ticks for the in-between;
#X text 453 456 counter;
#X text 410 560 comment;
#X obj 490 100 count;
#X obj 522 40 inlet;
#X obj 490 140 select;
#X text 570 40 reset clock;
#X obj 490 170 bng 15 250 50 0 empty empty empty 17 7 0 10 #fcfcfc
#000000 #000000;
#X msg 522 70 divisor \$1;
#X obj 440 70 r \$0-metro;
#X floatatom 560 150 5 0 0 0 - - -, f 5;
#X obj 550 120 - 1;
#X obj 370 10 inlet;
#X obj 400 100 f;
#X obj 337 150 s \$1-master-syncho;
#X connect 0 0 15 1;
#X connect 1 0 16 1;
#X connect 2 0 17 1;
#X connect 3 0 18 1;
#X connect 4 0 19 1;
#X connect 5 0 20 1;
#X connect 6 0 21 1;
#X connect 7 0 22 1;
#X connect 8 0 14 0;
#X connect 10 0 11 0;
#X connect 11 0 13 0;
#X connect 11 0 31 0;
#X connect 11 0 50 0;
#X connect 12 0 10 0;
#X connect 13 0 15 0;
#X connect 13 1 16 0;
#X connect 13 2 17 0;
#X connect 13 3 18 0;
#X connect 13 4 19 0;
#X connect 13 5 20 0;
#X connect 13 6 21 0;
#X connect 13 7 22 0;
#X connect 15 0 23 0;
#X connect 16 0 23 0;
#X connect 17 0 23 0;
#X connect 18 0 23 0;
#X connect 19 0 23 0;
#X connect 20 0 23 0;
#X connect 21 0 23 0;
#X connect 22 0 23 0;
#X connect 23 0 25 0;
#X connect 23 0 28 1;
#X connect 24 0 28 0;
#X connect 25 0 26 0;
#X connect 26 0 30 0;
#X connect 28 0 27 0;
#X connect 29 0 24 0;
#X connect 30 0 24 1;
#X connect 39 0 41 0;
#X connect 40 0 44 0;
#X connect 40 0 47 0;
#X connect 41 0 43 0;
#X connect 41 0 49 1;
#X connect 44 0 39 1;
#X connect 45 0 39 0;
#X connect 47 0 41 1;
#X connect 47 0 46 0;
#X connect 48 0 49 0;
#X connect 49 0 10 1;
#X coords 0 -1 1 1 420 124 1 128 232;
