#N canvas 735 437 450 300 12;
#X obj 80 0 notein;
#X obj 80 30 pack;
#X msg 80 60 \$2 \$1;
#X obj 80 90 route 127;
#X obj 80 120 - \$1;
#X obj 80 150 s \$2-mute-control;
#X connect 0 0 1 0;
#X connect 0 1 1 1;
#X connect 1 0 2 0;
#X connect 2 0 3 0;
#X connect 3 0 4 0;
#X connect 4 0 5 0;
