#N canvas 683 64 683 679 12;
#X obj 50 18 inlet;
#X obj 50 60 f;
#X obj 86 60 + 1;
#X text 50 -3 trigger in;
#X obj 137 20 inlet;
#X floatatom 50 90 5 0 0 0 - - -, f 5;
#X obj 50 250 %;
#X text 80 250 count from zero to divisor then reset;
#X text 174 166 use first argument as divisor;
#X floatatom 50 290 5 0 0 0 - - -, f 5;
#X obj 50 320 outlet;
#X floatatom 136 196 5 0 0 0 - - -, f 5;
#X obj 149 134 loadbang;
#X obj 136 166 \$1;
#X msg 202 88 0;
#X obj 137 58 route divisor reset;
#X text 180 20 use second inlet as divisor and reset;
#X obj 50 160 +, f 1;
#X obj 440 130 inlet;
#X connect 0 0 1 0;
#X connect 1 0 2 0;
#X connect 1 0 5 0;
#X connect 2 0 1 1;
#X connect 4 0 15 0;
#X connect 5 0 17 0;
#X connect 6 0 9 0;
#X connect 9 0 10 0;
#X connect 11 0 6 1;
#X connect 12 0 13 0;
#X connect 13 0 11 0;
#X connect 14 0 1 0;
#X connect 15 0 13 0;
#X connect 15 1 14 0;
#X connect 17 0 6 0;
#X connect 18 0 17 1;
