#N canvas 0 64 1366 679 12;
#X msg 220 380 127;
#X obj 190 324 bng 15 250 50 0 empty empty empty 17 7 0 10 #fcfcfc
#000000 #000000;
#X obj 190 30 inlet;
#X obj 190 380 f;
#X obj 335 382 f;
#X floatatom 335 272 5 0 0 0 - - -, f 5;
#X obj 335 412 ctlout;
#X obj 20 40 key;
#X floatatom 20 80 5 0 0 0 - - -, f 5;
#X obj 20 110 select 99;
#X floatatom 591 150 5 0 0 0 - - -, f 5;
#X obj 190 350 t b b b;
#X obj 395 382 f;
#X obj 190 410 noteout;
#X obj 254 380 f;
#X text 245 30 trigger in;
#X obj 591 30 inlet;
#X obj 591 103 \$1;
#X obj 600 70 loadbang;
#X text 646 30 drum number in;
#X text 624 102 or get drum number from 1st argument;
#X text 641 150 drum number;
#X msg 364 382 28;
#X text 375 272 1+2 pitch;
#X obj 336 32 inlet;
#X obj 335 352 t f b b;
#X obj 477 382 f;
#X floatatom 477 272 5 0 0 0 - - -, f 5;
#X obj 477 412 ctlout;
#X obj 537 382 f;
#X obj 477 352 t f b b;
#X obj 608 381 f;
#X floatatom 608 271 5 0 0 0 - - -, f 5;
#X obj 608 411 ctlout;
#X obj 668 381 f;
#X obj 608 351 t f b b;
#X msg 506 382 26;
#X msg 637 381 27;
#X obj 336 70 route pitch-both pitch1 pitch2;
#X text 20 60 test drum with c key;
#X obj 190 630 print;
#X obj 190 490 bng 15 250 50 0 empty empty empty 17 7 0 10 #fcfcfc
#000000 #000000;
#X obj 190 580 route pitch1;
#X obj 260 620 bng 15 250 50 0 empty empty empty 17 7 0 10 #fcfcfc
#000000 #000000;
#X msg 190 550 pitch1 \$1;
#X msg 190 520 6;
#X text 220 460 example: how to combine a number and word and route
it using the word;
#X text 266 549 number is passed into the message as the \$1 variable
;
#X text 517 272 1 pitch;
#X text 648 271 2 pitch;
#X connect 0 0 13 1;
#X connect 1 0 11 0;
#X connect 2 0 1 0;
#X connect 3 0 13 0;
#X connect 4 0 6 0;
#X connect 5 0 25 0;
#X connect 7 0 8 0;
#X connect 8 0 9 0;
#X connect 9 0 1 0;
#X connect 10 0 12 1;
#X connect 10 0 14 1;
#X connect 10 0 29 1;
#X connect 10 0 34 1;
#X connect 11 0 3 0;
#X connect 11 1 0 0;
#X connect 11 2 14 0;
#X connect 12 0 6 2;
#X connect 14 0 13 2;
#X connect 16 0 17 0;
#X connect 17 0 10 0;
#X connect 18 0 17 0;
#X connect 22 0 6 1;
#X connect 24 0 38 0;
#X connect 25 0 4 0;
#X connect 25 1 22 0;
#X connect 25 2 12 0;
#X connect 26 0 28 0;
#X connect 27 0 30 0;
#X connect 29 0 28 2;
#X connect 30 0 26 0;
#X connect 30 1 36 0;
#X connect 30 2 29 0;
#X connect 31 0 33 0;
#X connect 32 0 35 0;
#X connect 34 0 33 2;
#X connect 35 0 31 0;
#X connect 35 1 37 0;
#X connect 35 2 34 0;
#X connect 36 0 28 1;
#X connect 37 0 33 1;
#X connect 38 0 5 0;
#X connect 38 1 27 0;
#X connect 38 2 32 0;
#X connect 41 0 45 0;
#X connect 42 0 40 0;
#X connect 42 0 43 0;
#X connect 44 0 42 0;
#X connect 45 0 44 0;
