#N canvas 569 444 823 679 12;
#X obj 10 40 metro 200;
#X obj 12 16 tgl 15 0 empty empty empty 17 7 0 10 #fcfcfc #000000 #000000
1 1;
#X obj 620 330 drum-in 3;
#X obj 620 270 drum-in 1;
#X obj 620 300 drum-in 2;
#X obj 620 360 drum-in 4;
#X floatatom 508 40 5 0 0 0 - - -, f 5;
#X obj 620 390 drum-in 5;
#X obj 10 70 count 8;
#X obj 620 421 drum-in 6;
#X text 490 13 reset threshold;
#X obj 188 270 8mute 1;
#X obj 188 321 8mute 2;
#X obj 188 474 8mute 5;
#X obj 188 525 8mute 6;
#X obj 188 372 8mute 3;
#X obj 188 423 8mute 4;
#X obj 189 197 8note 1;
#X obj 189 73 8syncho 1;
#X text 620 450 these two drums get a;
#X text 620 470 steady clock to add;
#X text 620 490 stucture 5 + 6;
#X obj 60 253 bng 15 250 50 0 empty empty empty 0 -6 0 8 #fcfcfc #000000
#000000;
#X obj 60 272 t b b b;
#X obj 60 330 noteout;
#X floatatom 70 10 5 0 0 0 - - -, f 5;
#X obj 630 110 buttons-at 0 1;
#X obj 630 130 buttons-at 16 2;
#X obj 630 150 buttons-at 32 3;
#X obj 630 170 buttons-at 48 4;
#X obj 630 190 buttons-at 64 5;
#X obj 630 210 buttons-at 80 6;
#X msg 60 304 127;
#X msg 94 304 127;
#X msg 127 304 8;
#X connect 0 0 18 0;
#X connect 0 0 8 0;
#X connect 1 0 0 0;
#X connect 6 0 18 2;
#X connect 18 0 22 0;
#X connect 22 0 23 0;
#X connect 23 0 32 0;
#X connect 23 1 33 0;
#X connect 23 2 34 0;
#X connect 25 0 0 1;
#X connect 32 0 24 0;
#X connect 33 0 24 1;
#X connect 34 0 24 2;
