#N canvas 0 64 1366 679 12;
#X obj 12 46 metro 200;
#X obj 12 16 tgl 15 0 empty empty empty 17 7 0 10 #fcfcfc #000000 #000000
0 1;
#X obj 90 197 8note;
#X floatatom 549 610 5 0 0 0 - - -, f 5;
#X obj 518 466 8mute;
#X obj 90 70 8syncho;
#X obj 549 584 *;
#X floatatom 568 552 5 0 0 0 - - -, f 5;
#X obj 90 464 8mute;
#X msg 120 624 pitch-both \$1;
#X floatatom 120 596 5 0 0 0 - - -, f 5;
#X obj 120 570 *;
#X floatatom 140 540 5 0 0 0 - - -, f 5;
#X obj 518 251 8mute;
#X msg 548 412 pitch-both \$1;
#X floatatom 548 383 5 0 0 0 - - -, f 5;
#X obj 548 357 *;
#X floatatom 568 327 5 0 0 0 - - -, f 5;
#X obj 518 441 drum-in 3;
#X msg 120 411 pitch-both \$1;
#X floatatom 120 382 5 0 0 0 - - -, f 5;
#X obj 120 356 *;
#X floatatom 140 326 5 0 0 0 - - -, f 5;
#X obj 90 440 drum-in 1;
#X obj 90 654 drum-in 2;
#X obj 519 668 drum-in 4;
#X msg 548 639 pitch-both \$1;
#X floatatom 410 40 5 0 0 0 - - -, f 5;
#X floatatom 290 30 5 0 0 0 - - -, f 5;
#X obj 520 70 8mute;
#X obj 520 130 drum-in 5;
#X obj 520 40 count 8;
#X obj 520 160 8mute;
#X obj 520 220 drum-in 6;
#X text 410 10 reset threshold;
#X text 600 40 these two drums get a steady clock to add stucture 5
+ 6;
#X obj 90 250 8mute 1;
#X obj 1030 260 s 1-mute;
#X floatatom 1020 220 5 0 0 0 - - -, f 5;
#X connect 0 0 5 0;
#X connect 0 0 31 0;
#X connect 1 0 0 0;
#X connect 2 0 4 0;
#X connect 2 0 8 0;
#X connect 2 0 13 0;
#X connect 2 0 36 0;
#X connect 3 0 26 0;
#X connect 4 0 6 0;
#X connect 4 0 25 0;
#X connect 5 0 2 0;
#X connect 5 0 4 1;
#X connect 5 0 8 1;
#X connect 5 0 13 1;
#X connect 5 0 36 1;
#X connect 6 0 3 0;
#X connect 7 0 6 1;
#X connect 8 0 11 0;
#X connect 8 0 24 0;
#X connect 9 0 24 1;
#X connect 10 0 9 0;
#X connect 11 0 10 0;
#X connect 12 0 11 1;
#X connect 13 0 16 0;
#X connect 13 0 18 0;
#X connect 14 0 18 1;
#X connect 15 0 14 0;
#X connect 16 0 15 0;
#X connect 17 0 16 1;
#X connect 19 0 23 1;
#X connect 20 0 19 0;
#X connect 21 0 20 0;
#X connect 22 0 21 1;
#X connect 26 0 25 1;
#X connect 27 0 5 2;
#X connect 28 0 5 1;
#X connect 29 0 30 0;
#X connect 31 0 29 1;
#X connect 31 0 32 1;
#X connect 32 0 33 0;
#X connect 36 0 21 0;
#X connect 36 0 23 0;
#X connect 38 0 37 0;
